<?xml version="1.0" encoding="UTF-8"?>
<svg id="Layer_1" data-name="Layer 1" xmlns="http://www.w3.org/2000/svg" viewBox="0 0 1288.75 304.15">
  <defs>
    <style>
      .cls-1 {
        fill: #f9f8f0;
      }
    </style>
  </defs>
  <g id="WHITE">
    <path id="G" class="cls-1" d="M232.59,81.38c-1.85,5.55-4.41,10.82-7.69,15.81-3.27,4.98-7.05,9.47-11.32,13.46-4.27,3.99-8.97,7.26-14.1,9.82,2.28-6.27,3.42-12.81,3.42-19.65,0-8.26-1.43-15.88-4.27-22.85-2.85-6.98-6.76-13.03-11.75-18.15-4.99-5.13-10.97-9.11-17.94-11.96-6.98-2.85-14.6-4.27-22.85-4.27-14.81,0-28.83,4.34-42.08,13.03-13.24,8.68-24.92,19.51-35.03,32.46-10.11,12.96-18.16,27.12-24.14,42.5-5.98,15.38-8.97,29.9-8.97,43.57,0,8.54.85,17.73,2.56,27.55,1.71,9.82,4.63,18.94,8.76,27.34,4.13,8.4,9.68,15.38,16.66,20.93,6.98,5.55,15.87,8.33,26.7,8.33,11.39,0,22.35-2.85,32.89-8.54,10.54-5.7,20.43-12.89,29.69-21.57,9.25-8.69,17.66-18.16,25.2-28.41,7.55-10.25,13.88-19.93,19.01-29.05-7.97,1.71-16.66,3.91-26.06,6.62-9.4,2.71-18.65,5.84-27.77,9.4-9.11,3.56-17.8,7.69-26.06,12.39-8.26,4.7-15.38,10.04-21.36,16.02l28.2-61.51h103.8l-11.11,36.74c-3.7,12.24-7.05,24.56-10.04,36.95-2.99,12.39-5.34,24.85-7.05,37.38-1.71,12.53-2.56,25.35-2.56,38.45h-60.66c4.84-7.97,9.19-16.3,13.03-24.99,3.84-8.69,7.76-17.16,11.75-25.42-11.68,14.81-25.35,26.91-41.01,36.31-15.66,9.4-33.18,14.1-52.54,14.1-12.53,0-23.14-2.71-31.82-8.12-8.69-5.41-15.66-12.46-20.93-21.14-5.27-8.69-9.11-18.44-11.53-29.26-2.42-10.82-3.63-21.5-3.63-32.04,0-14.81,2.21-30.19,6.62-46.13,4.41-15.95,10.61-31.68,18.58-47.2,7.97-15.52,17.51-30.26,28.62-44.21,11.1-13.96,23.28-26.13,36.52-36.52,13.24-10.39,27.34-18.72,42.29-24.99,14.95-6.27,30.26-9.4,45.92-9.4,18.23,0,32.25,5.48,42.07,16.44,9.83,10.97,14.74,25.27,14.74,42.93,0,5.7-.93,11.32-2.78,16.87Z"/>
    <path id="_R_" data-name="&amp;lt;R&amp;gt;" class="cls-1" d="M359.24,157.2c-4.84-.86-9.54-1.28-14.09-1.28-31.61,0-47.42,15.66-47.42,46.99v101.24h-51.26V109.36h48.27v23.49c4.27-6.55,8.68-11.67,13.24-15.38,4.55-3.7,9.25-6.55,14.1-8.54,4.84-1.99,9.83-3.2,14.95-3.63,5.13-.43,10.25-.64,15.38-.64h6.83v52.54Z"/>
    <path id="_O_" data-name="&amp;lt;O&amp;gt;" class="cls-1" d="M456.64,99.11c15.38,0,29.19,2.42,41.43,7.26,12.24,4.85,22.64,11.75,31.18,20.72,8.54,8.97,15.09,19.8,19.65,32.46,4.55,12.67,6.83,26.7,6.83,42.08s-2.35,29.41-7.05,42.08c-4.7,12.67-11.32,23.49-19.86,32.46-8.54,8.97-18.94,15.88-31.18,20.72-12.25,4.84-25.92,7.26-41.01,7.26s-29.69-2.5-42.07-7.48c-12.39-4.98-22.85-11.96-31.4-20.93-8.54-8.97-15.1-19.79-19.65-32.46-4.56-12.67-6.84-26.55-6.84-41.65s2.35-29.33,7.05-41.86c4.7-12.53,11.32-23.28,19.86-32.25,8.54-8.97,19.01-15.95,31.39-20.93,12.39-4.98,26.27-7.48,41.65-7.48ZM456.64,142.68c-31.33,0-46.99,19.65-46.99,58.95s15.66,59.38,46.99,59.38,46.99-19.79,46.99-59.38-15.67-58.95-46.99-58.95Z"/>
    <path id="H" class="cls-1" d="M623.23,134.99c3.97-8.82,11.28-16.16,21.93-22,10.64-5.83,22.49-8.76,35.55-8.76,19.86,0,36.04,5.49,48.52,16.44,12.49,10.97,18.73,26.27,18.73,45.92v137.55h-51.26v-120.46c0-14.8-2.56-24.92-7.69-30.33-5.13-5.41-13.67-8.12-25.63-8.12-12.82,0-22.71,4.63-29.69,13.88-6.98,9.26-10.47,20.44-10.47,33.53v111.49h-51.26V38.45h51.26v96.54Z"/>
    <path id="W" class="cls-1" d="M969.66,304.15h-52.54l-30.76-113.2-30.75,113.2h-52.97l-55.1-194.79h54.25l31.61,125.16,26.91-125.16h52.11l30.33,125.16,29.9-125.16h52.97l-55.96,194.79Z"/>
    <path id="E" class="cls-1" d="M1154.62,215.3c.86,14.4,5.13,25.97,12.82,34.72,7.69,8.75,17.94,13.12,30.76,13.12,8.25,0,15.66-1.95,22.21-5.86,6.55-3.91,10.82-9.08,12.82-15.5h52.97c-5.98,19.94-16.52,35.32-31.61,46.13-15.1,10.83-33.04,16.23-53.82,16.23-64.93,0-97.39-35.31-97.39-105.94,0-30.18,8.12-54.25,24.35-72.19,16.23-17.94,39.44-26.91,69.63-26.91,60.94,0,91.41,38.73,91.41,116.19h-134.13ZM1235.79,182.83c-.58-14.52-4.77-25.27-12.6-32.25-7.83-6.98-16.87-10.47-27.12-10.47s-19.51,3.7-26.91,11.1c-7.41,7.41-11.68,17.94-12.81,31.61h79.45Z"/>
    <g id="I">
      <path class="cls-1" d="M1088.41,304.15h-51.26V109.36h51.26v194.79Z"/>
      <polygon class="cls-1" points="1060.84 34.08 1076.2 23.42 1077.45 42.08 1095.36 47.44 1081.55 60.05 1088.52 77.4 1070.05 74.46 1060.84 90.73 1051.62 74.46 1033.15 77.4 1040.12 60.05 1026.32 47.44 1044.23 42.08 1045.47 23.42 1060.84 34.08"/>
    </g>
  </g>
</svg>